# File created by Blade
# Date/Time:  Tue Apr 07 20:35:32 2015
# Frame Rate: 120.000 fps
#------------------------------------------------------
:FULLY-SPECIFIED
:DEGREES
2314
root -0.693514 32.854974 -3.687329 12.602854 -1.905979 -0.655046
Spine -16.664662 -3.692077 -1.046806
Head 12.018046 -1.472273 -0.797654
LeftShoulder -21.485545 37.239399 22.011201
LeftArm 52.162183 -57.760828 -52.373709
LeftForeArm 14.888262 -0.000000 1.233263
LeftHand 1.485657 -0.000000 5.497404
LeftHandThumb1 -26.253704 0.000000 33.147579
RightShoulder -7.669248 5.821904 -32.359050
RightArm 10.711609 9.998147 36.325114
RightForeArm -13.102665 -0.000000 1.446823
RightHand -1.437136 0.000000 3.127266
RightHandThumb1 -24.326973 -0.000000 -32.862282
LeftUpLeg -7.288923 -6.553861 3.041932
LeftLeg -3.026577 -0.000000 0.000000
LeftFoot -5.438330 8.987813 -17.444083
LeftToeBase -8.035011 -0.000000 0.000000
RightUpLeg -8.374662 -2.426076 0.826812
RightLeg -3.220063 -0.000000 0.000000
RightFoot -5.904679 -6.342111 7.159978
RightToeBase 0.038332 -0.000000 -0.000000
2315
root -0.697176 32.855499 -3.692361 12.578204 -1.906230 -0.653926
Spine -16.664780 -3.700084 -1.046794
Head 12.062752 -1.465986 -0.827674
LeftShoulder -21.427099 37.225152 22.051645
LeftArm 52.070958 -57.698890 -52.317192
LeftForeArm 14.815557 -0.000000 1.264435
LeftHand 1.469024 -0.000000 5.474763
LeftHandThumb1 -26.253704 0.000000 33.147579
RightShoulder -7.654149 5.819786 -32.337364
RightArm 10.690863 9.948901 36.336210
RightForeArm -13.080542 -0.000000 1.415892
RightHand -1.395516 -0.000000 3.132315
RightHandThumb1 -24.326973 -0.000000 -32.862282
LeftUpLeg -7.279061 -6.540586 3.039518
LeftLeg -3.016946 -0.000000 0.000000
LeftFoot -5.428730 8.992015 -17.394725
LeftToeBase -8.076271 -0.000000 0.000000
RightUpLeg -8.366469 -2.409624 0.829148
RightLeg -3.203157 -0.000000 0.000000
RightFoot -5.916692 -6.354327 7.155681
RightToeBase 0.081020 -0.000000 -0.000000
2316
root -0.700745 32.855582 -3.697481 12.564092 -1.913871 -0.650063
Spine -16.676887 -3.707034 -1.046043
Head 12.101149 -1.447521 -0.847186
LeftShoulder -21.390812 37.220809 22.076623
LeftArm 52.151489 -57.731841 -52.438375
LeftForeArm 14.967519 -0.000000 1.263749
LeftHand 1.587056 -0.000000 5.214993
LeftHandThumb1 -26.253704 0.000000 33.147579
RightShoulder -7.639152 5.837128 -32.336088
RightArm 10.669697 9.885618 36.380756
RightForeArm -13.118006 -0.000000 1.372244
RightHand -1.491081 0.000000 3.072520
RightHandThumb1 -24.326973 -0.000000 -32.862282
LeftUpLeg -7.275984 -6.541223 3.040489
LeftLeg -3.011348 -0.000000 0.000000
LeftFoot -5.430044 8.997173 -17.420164
LeftToeBase -8.135515 -0.000000 0.000000
RightUpLeg -8.367118 -2.390821 0.827962
RightLeg -3.192297 -0.000000 0.000000
RightFoot -5.922517 -6.372511 7.152059
RightToeBase 0.108411 -0.000000 -0.000000
2317
root -0.703869 32.855498 -3.701888 12.555333 -1.929498 -0.646389
Spine -16.695870 -3.718820 -1.044025
Head 12.136892 -1.422780 -0.862325
LeftShoulder -21.374178 37.222890 22.088083
LeftArm 52.112606 -57.676070 -52.414724
LeftForeArm 14.946585 0.000000 1.285991
LeftHand 1.598496 -0.000000 5.107060
LeftHandThumb1 -26.253704 0.000000 33.147579
RightShoulder -7.613512 5.816984 -32.323742
RightArm 10.668271 9.841931 36.427625
RightForeArm -13.178822 -0.000000 1.379854
RightHand -1.502920 -0.000000 3.187771
RightHandThumb1 -24.326973 -0.000000 -32.862282
LeftUpLeg -7.270147 -6.563435 3.042754
LeftLeg -3.016216 -0.000000 0.000000
LeftFoot -5.426089 9.042194 -17.383035
LeftToeBase -8.217943 -0.000000 0.000000
RightUpLeg -8.366943 -2.352433 0.821928
RightLeg -3.191071 -0.000000 0.000000
RightFoot -5.941877 -6.389872 7.166309
RightToeBase 0.154913 -0.000000 -0.000000
2318
root -0.708489 32.854682 -3.706833 12.544430 -1.933890 -0.658013
Spine -16.714052 -3.743585 -1.024021
Head 12.188772 -1.399121 -0.878080
LeftShoulder -21.344658 37.213860 22.098210
LeftArm 52.003130 -57.586072 -52.271524
LeftForeArm 14.859391 -0.000000 1.250257
LeftHand 1.571328 0.000000 5.075608
LeftHandThumb1 -26.253704 0.000000 33.147579
RightShoulder -7.567363 5.797008 -32.314331
RightArm 10.661333 9.785563 36.486305
RightForeArm -13.201567 -0.000000 1.365673
RightHand -1.560134 -0.000000 3.125832
RightHandThumb1 -24.326973 -0.000000 -32.862282
LeftUpLeg -7.263101 -6.573306 3.058002
LeftLeg -3.022735 -0.000000 0.000000
LeftFoot -5.443633 9.089265 -17.373560
LeftToeBase -8.244461 -0.000000 0.000000
RightUpLeg -8.365168 -2.324075 0.836321
RightLeg -3.188547 -0.000000 0.000000
RightFoot -5.962194 -6.407375 7.228792
RightToeBase 0.136484 -0.000000 -0.000000
